# xmcd
#
# Track frame offsets: 
#        150
#        18887
#        32500
#        46854
#        60593
#        76952
#        91295
#        106756
#        122722
#        138425
#        153995
#
# Disc length: 2214 seconds
#
# Revision: 0
# Processed by: cddbd v1.5.2PL0 Copyright (c) Steve Scherf et al.
# Submitted via: ExactAudioCopy v1.0b4
#
DISCID=7908a40b
DTITLE=Billy D. - Hoodoo Man
DYEAR=1900
DGENRE=Blues
TTITLE0=Why Ya Do It
TTITLE1=Miss The Love
TTITLE2=Blue
TTITLE3=Charlene
TTITLE4=She's The One
TTITLE5=Hide My Heart
TTITLE6=The Rest Of My Life
TTITLE7=Bye Now
TTITLE8=Love Makes You Cry
TTITLE9=Save My Life
TTITLE10=Closing Time
EXTD=
EXTT0=
EXTT1=
EXTT2=
EXTT3=
EXTT4=
EXTT5=
EXTT6=
EXTT7=
EXTT8=
EXTT9=
EXTT10=
PLAYORDER=
